# xmcd
#
# Track frame offsets:
# 150
# 16022
# 31509
# 45910
# 64100
# 77856
# 93680
# 107757
# 125392
# 138313
# 153106
# 166762
# 180294
# 195362
# 208957
# 225889
# 241869
# 256983
# 272032
# 284815
#
# Disc length: 3991 seconds
#
#
# Revision: 1
# Processed by: cddbd v1.5.2PL0 Copyright (c) Steve Scherf et al.
# Submitted via: FreeRIP 2.30 
#
DISCID=f90f9514
DTITLE=Die Jahrhunderthits der Volksmusik CD1 - Die Jahrhunderthits der Volksmusik CD1
DYEAR=2008
DGENRE=National Folk
TTITLE0=Die Amigos - Ich geh für dich durchs Feuer
TTITLE1=Gaby Albrecht - Gefühle sterben nicht
TTITLE2=Hansi Hinterseer - Komm her zu mir
TTITLE3=Geschwister Hofmann - Grenzenlos
TTITLE4=Klostertaler - Heimat ist dort, wo die Berge sind
TTITLE5=Moninka Martin - Jedes Ende ist ein Beginn
TTITLE6=Alpentrio Tirol - Rot sind die Rosen
TTITLE7=Mara Kayser - Morgensterne schweigen
TTITLE8=Vincent and Fernando - Ich schenk Dir Liebe
TTITLE9=Marianne und Michael - Gar nix
TTITLE10=Die Ladiner - Beuge dich vor grauem Haar
TTITLE11=Bianca - Ich glaube an die Zukunft der Liebe
TTITLE12=Rudy Giovannini - Dann ruf ich wieder deinen Namen
TTITLE13=Nockalm Quintett und Stephanie - Dort auf Wolke Sieben
TTITLE14=DJ Ötzi - Anton aus Tirol ( Party Mix )
TTITLE15=Marc Pircher - Sieben Sünden
TTITLE16=Die Randfichten - Lebt denn der alte Holzmichel noch
TTITLE17=Ursprung Buam - Ein Casanova kann nit aufgeign
TTITLE18=Die Stoakogler und die Edlseer - A Musikant im Trachtengwand
TTITLE19=Die großen 3 der voksmusik - Ciao Amore
EXTD=
EXTT0=
EXTT1=
EXTT2=
EXTT3=
EXTT4=
EXTT5=
EXTT6=
EXTT7=
EXTT8=
EXTT9=
EXTT10=
EXTT11=
EXTT12=
EXTT13=
EXTT14=
EXTT15=
EXTT16=
EXTT17=
EXTT18=
EXTT19=
PLAYORDER=
